<svg width="24" height="24" viewBox="0 0 24 24" fill="none" xmlns="http://www.w3.org/2000/svg">
<g clip-path="url(#clip0_2345_7637)">
<path d="M12 22C17.5228 22 22 17.5228 22 12C22 6.47715 17.5228 2 12 2C6.47715 2 2 6.47715 2 12C2 17.5228 6.47715 22 12 22Z" fill="#6DA544"/>
<path d="M12.0001 5.91309L20.261 12L12.0001 18.087L3.73926 12L12.0001 5.91309Z" fill="#FFDA44"/>
<path d="M12 15.4785C13.921 15.4785 15.4782 13.9212 15.4782 12.0002C15.4782 10.0792 13.921 8.52197 12 8.52197C10.079 8.52197 8.52173 10.0792 8.52173 12.0002C8.52173 13.9212 10.079 15.4785 12 15.4785Z" fill="#F0F0F0"/>
<path d="M10.2607 11.7827C9.65587 11.7827 9.07216 11.8747 8.52271 12.0454C8.54704 13.9454 10.0941 15.4784 11.9998 15.4784C13.1783 15.4784 14.2191 14.8918 14.8482 13.9953C13.7718 12.6477 12.1155 11.7827 10.2607 11.7827Z" fill="#0052B4"/>
<path d="M15.4138 12.6666C15.4557 12.4508 15.4783 12.2282 15.4783 12.0002C15.4783 10.0792 13.921 8.52197 12 8.52197C10.5667 8.52197 9.33621 9.3892 8.80371 10.6274C9.27441 10.5299 9.76176 10.4785 10.2609 10.4785C12.2811 10.4785 14.1087 11.3182 15.4138 12.6666Z" fill="#0052B4"/>
</g>
<defs>
<clipPath id="clip0_2345_7637">
<rect width="20" height="20" fill="white" transform="translate(2 2)"/>
</clipPath>
</defs>
</svg>
