<svg width="16" height="14" viewBox="0 0 16 14" fill="none" xmlns="http://www.w3.org/2000/svg">
<path d="M15.3332 11.6667C15.3332 12.0203 15.1927 12.3594 14.9426 12.6095C14.6926 12.8595 14.3535 13 13.9998 13L1.99984 13C1.64622 13 1.30708 12.8595 1.05703 12.6095C0.80698 12.3594 0.666504 12.0203 0.666504 11.6667L0.666504 4.33333C0.666504 3.97971 0.80698 3.64057 1.05703 3.39052C1.30708 3.14048 1.64622 3 1.99984 3L4.6665 3L5.99984 1L9.99984 1L11.3332 3L13.9998 3C14.3535 3 14.6926 3.14048 14.9426 3.39052C15.1927 3.64057 15.3332 3.97971 15.3332 4.33333L15.3332 11.6667Z" stroke="#B4B6B8" stroke-linecap="round" stroke-linejoin="round"/>
<path d="M7.99984 10.3333C9.4726 10.3333 10.6665 9.13943 10.6665 7.66667C10.6665 6.19391 9.4726 5 7.99984 5C6.52708 5 5.33317 6.19391 5.33317 7.66667C5.33317 9.13943 6.52708 10.3333 7.99984 10.3333Z" stroke="#B4B6B8" stroke-linecap="round" stroke-linejoin="round"/>
</svg>
