<svg width="24" height="24" viewBox="0 0 24 24" fill="none" xmlns="http://www.w3.org/2000/svg">
<g clip-path="url(#clip0_2345_7641)">
<path d="M12 22C17.5228 22 22 17.5228 22 12C22 6.47715 17.5228 2 12 2C6.47715 2 2 6.47715 2 12C2 17.5228 6.47715 22 12 22Z" fill="#D80027"/>
<path d="M7.47266 8.08594L8.33594 10.7422H11.1289L8.87109 12.3867L9.73438 15.043L7.47266 13.4023L5.21094 15.043L6.07812 12.3867L3.81641 10.7422H6.60938L7.47266 8.08594Z" fill="#FFDA44"/>
<path d="M13.8552 17.4883L13.1951 16.6758L12.2185 17.0547L12.7849 16.1758L12.1248 15.3594L13.1365 15.6289L13.7068 14.75L13.7615 15.7969L14.7771 16.0664L13.7966 16.4414L13.8552 17.4883Z" fill="#FFDA44"/>
<path d="M15.1677 15.1055L15.4802 14.1055L14.6248 13.5L15.6716 13.4844L15.9802 12.4844L16.3201 13.4766L17.3669 13.4648L16.5271 14.0898L16.863 15.082L16.0076 14.4766L15.1677 15.1055Z" fill="#FFDA44"/>
<path d="M16.9377 9.33984L16.4768 10.2812L17.2268 11.0117L16.1917 10.8633L15.7307 11.8008L15.551 10.7695L14.512 10.6211L15.4417 10.1328L15.262 9.09766L16.012 9.82812L16.9377 9.33984Z" fill="#FFDA44"/>
<path d="M13.8828 6.48828L13.8047 7.53125L14.7773 7.92578L13.7578 8.17578L13.6836 9.22266L13.1328 8.33203L12.1133 8.58203L12.7891 7.78125L12.2344 6.89453L13.207 7.28906L13.8828 6.48828Z" fill="#FFDA44"/>
</g>
<defs>
<clipPath id="clip0_2345_7641">
<rect width="20" height="20" fill="white" transform="translate(2 2)"/>
</clipPath>
</defs>
</svg>
