<svg width="16" height="14" viewBox="0 0 16 14" fill="none" xmlns="http://www.w3.org/2000/svg">
<path d="M0.666748 1.66655V5.66655M0.666748 5.66655H4.66675M0.666748 5.66655L3.76008 2.75989C4.47658 2.04303 5.363 1.51936 6.33662 1.23774C7.31024 0.956115 8.33934 0.925722 9.32789 1.14939C10.3164 1.37306 11.2322 1.84351 11.9898 2.51683C12.7473 3.19016 13.322 4.04441 13.6601 4.99989M15.3334 12.3332V8.33322M15.3334 8.33322H11.3334M15.3334 8.33322L12.2401 11.2399C11.5236 11.9567 10.6372 12.4804 9.66354 12.762C8.68992 13.0437 7.66082 13.0741 6.67227 12.8504C5.68372 12.6267 4.76795 12.1563 4.01039 11.4829C3.25284 10.8096 2.67819 9.95536 2.34008 8.99989" stroke="white" stroke-linecap="round" stroke-linejoin="round"/>
</svg>
