<svg width="10" height="8" viewBox="0 0 10 8" fill="none" xmlns="http://www.w3.org/2000/svg">
<path d="M9.49999 0.500001H0.49999C0.407211 0.500186 0.31631 0.526156 0.237436 0.575012C0.158562 0.623867 0.0948198 0.693685 0.0533277 0.77667C0.0118355 0.859654 -0.00577365 0.952538 0.00246631 1.04495C0.0107063 1.13736 0.044471 1.22567 0.0999905 1.3L4.59999 7.3C4.64644 7.36228 4.70679 7.41285 4.77623 7.44769C4.84568 7.48253 4.9223 7.50067 4.99999 7.50067C5.07768 7.50067 5.1543 7.48253 5.22375 7.44769C5.29319 7.41285 5.35354 7.36228 5.39999 7.3L9.89999 1.3C9.9559 1.22577 9.98999 1.13741 9.99843 1.04486C10.0069 0.952307 9.98932 0.859239 9.94776 0.776117C9.9062 0.692995 9.84227 0.623115 9.76317 0.574337C9.68407 0.525558 9.59292 0.499815 9.49999 0.500001Z" fill="#F73B2F"/>
</svg>
