<svg width="16" height="16" viewBox="0 0 16 16" fill="none" xmlns="http://www.w3.org/2000/svg">
<g clip-path="url(#clip0_2564_6350)">
<path d="M9.41335 9.41317C9.23025 9.60967 9.00945 9.76728 8.76412 9.87659C8.51879 9.9859 8.25395 10.0447 7.98541 10.0494C7.71687 10.0542 7.45013 10.0048 7.20109 9.90417C6.95206 9.80358 6.72583 9.65386 6.53592 9.46394C6.346 9.27403 6.19628 9.0478 6.09569 8.79877C5.9951 8.54973 5.9457 8.28299 5.95044 8.01445C5.95518 7.74591 6.01396 7.48107 6.12327 7.23574C6.23258 6.99041 6.39019 6.76961 6.58669 6.58651M0.666687 0.666504L15.3334 15.3332M11.96 11.9598C10.8204 12.8285 9.43276 13.3098 8.00002 13.3332C3.33335 13.3332 0.666687 7.99984 0.666687 7.99984C1.49595 6.45444 2.64611 5.10425 4.04002 4.03984L11.96 11.9598ZM6.60002 2.82651C7.05891 2.71909 7.52873 2.6654 8.00002 2.66651C12.6667 2.66651 15.3334 7.99984 15.3334 7.99984C14.9287 8.75691 14.4461 9.46967 13.8934 10.1265L6.60002 2.82651Z" stroke="#7A7E80" stroke-linecap="round" stroke-linejoin="round"/>
</g>
<defs>
<clipPath id="clip0_2564_6350">
<rect width="16" height="16" fill="white"/>
</clipPath>
</defs>
</svg>
