<svg width="14" height="16" viewBox="0 0 14 16" fill="none" xmlns="http://www.w3.org/2000/svg">
<path d="M3.66667 7.3335L3.66667 4.66683C3.66667 3.78277 4.01786 2.93493 4.64298 2.30981C5.2681 1.68469 6.11594 1.3335 7 1.3335C7.88406 1.3335 8.7319 1.68469 9.35702 2.30981C9.98214 2.93493 10.3333 3.78277 10.3333 4.66683L10.3333 7.3335M2.33333 7.3335L11.6667 7.3335C12.403 7.3335 13 7.93045 13 8.66683V13.3335C13 14.0699 12.403 14.6668 11.6667 14.6668L2.33333 14.6668C1.59695 14.6668 1 14.0699 1 13.3335L1 8.66683C1 7.93045 1.59695 7.3335 2.33333 7.3335Z" stroke="#B4B6B8" stroke-linecap="round" stroke-linejoin="round"/>
</svg>
