<svg width="16" height="14" viewBox="0 0 16 14" fill="none" xmlns="http://www.w3.org/2000/svg">
<path d="M5.33325 5.66667L7.99992 8.33333L10.6666 5.66667M2.66659 1H13.3333C13.6869 1 14.026 1.14048 14.2761 1.39052C14.5261 1.64057 14.6666 1.97971 14.6666 2.33333V6.33333C14.6666 8.10144 13.9642 9.79714 12.714 11.0474C11.4637 12.2976 9.76803 13 7.99992 13C7.12444 13 6.25753 12.8276 5.4487 12.4925C4.63986 12.1575 3.90493 11.6664 3.28587 11.0474C2.03563 9.79714 1.33325 8.10144 1.33325 6.33333V2.33333C1.33325 1.97971 1.47373 1.64057 1.72378 1.39052C1.97382 1.14048 2.31296 1 2.66659 1Z" stroke="white" stroke-linecap="round" stroke-linejoin="round"/>
</svg>
