<svg width="16" height="14" viewBox="0 0 16 14" fill="none" xmlns="http://www.w3.org/2000/svg">
<path d="M10.6667 9.66667V1H0.666748V9.66667H10.6667ZM10.6667 9.66667H15.3334V6.33333L13.3334 4.33333H10.6667V9.66667ZM5.33341 11.3333C5.33341 12.2538 4.58722 13 3.66675 13C2.74627 13 2.00008 12.2538 2.00008 11.3333C2.00008 10.4129 2.74627 9.66667 3.66675 9.66667C4.58722 9.66667 5.33341 10.4129 5.33341 11.3333ZM14.0001 11.3333C14.0001 12.2538 13.2539 13 12.3334 13C11.4129 13 10.6667 12.2538 10.6667 11.3333C10.6667 10.4129 11.4129 9.66667 12.3334 9.66667C13.2539 9.66667 14.0001 10.4129 14.0001 11.3333Z" stroke="white" stroke-linecap="round" stroke-linejoin="round"/>
</svg>
