<svg width="15" height="15" viewBox="0 0 15 15" fill="none" xmlns="http://www.w3.org/2000/svg">
<path d="M10 2.5L11.25 2.5C11.5815 2.5 11.8995 2.6317 12.1339 2.86612C12.3683 3.10054 12.5 3.41848 12.5 3.75L12.5 12.5C12.5 12.8315 12.3683 13.1495 12.1339 13.3839C11.8995 13.6183 11.5815 13.75 11.25 13.75L3.75 13.75C3.41848 13.75 3.10054 13.6183 2.86612 13.3839C2.6317 13.1495 2.5 12.8315 2.5 12.5L2.5 3.75C2.5 3.41848 2.6317 3.10054 2.86612 2.86612C3.10054 2.6317 3.41848 2.5 3.75 2.5L5 2.5M5.625 1.25L9.375 1.25C9.72018 1.25 10 1.52982 10 1.875V3.125C10 3.47018 9.72018 3.75 9.375 3.75L5.625 3.75C5.27982 3.75 5 3.47018 5 3.125V1.875C5 1.52982 5.27982 1.25 5.625 1.25Z" stroke="white" stroke-linecap="round" stroke-linejoin="round"/>
</svg>
