<svg width="14" height="16" viewBox="0 0 14 16" fill="none" xmlns="http://www.w3.org/2000/svg">
<path d="M1 4.00016L3 1.3335H11L13 4.00016M1 4.00016V13.3335C1 13.6871 1.14048 14.0263 1.39052 14.2763C1.64057 14.5264 1.97971 14.6668 2.33333 14.6668H11.6667C12.0203 14.6668 12.3594 14.5264 12.6095 14.2763C12.8595 14.0263 13 13.6871 13 13.3335V4.00016M1 4.00016H13M9.66671 6.66681C9.66671 7.37405 9.38576 8.05233 8.88566 8.55243C8.38556 9.05252 7.70729 9.33348 7.00004 9.33348C6.2928 9.33348 5.61452 9.05252 5.11442 8.55243C4.61433 8.05233 4.33337 7.37405 4.33337 6.66681" stroke="white" stroke-linecap="round" stroke-linejoin="round"/>
</svg>
